<svg viewBox="0 0 3660 1900" xmlns="http://www.w3.org/2000/svg" font-family="Microsoft YaHei,PingFang SC,sans-serif" id="fishboneSvg">
<defs>
 <linearGradient id="gB" x1="0" y1="0" x2="0" y2="1"><stop offset="0" stop-color="#7dd3fc"/><stop offset="1" stop-color="#0ea5e9"/></linearGradient>
 <linearGradient id="gT" x1="0" y1="0" x2="0" y2="1"><stop offset="0" stop-color="#5eead4"/><stop offset="1" stop-color="#14b8a6"/></linearGradient>
 <linearGradient id="gI" x1="0" y1="0" x2="0" y2="1"><stop offset="0" stop-color="#a5b4fc"/><stop offset="1" stop-color="#6366f1"/></linearGradient>
 <linearGradient id="gS" x1="0" y1="0" x2="0" y2="1"><stop offset="0" stop-color="#94a3b8"/><stop offset="1" stop-color="#475569"/></linearGradient>
 <linearGradient id="gHead" x1="0" y1="0" x2="1" y2="1"><stop offset="0" stop-color="#38bdf8"/><stop offset="1" stop-color="#14b8a6"/></linearGradient>
 <linearGradient id="gKey" x1="0" y1="0" x2="0" y2="1"><stop offset="0" stop-color="#93c5fd"/><stop offset="1" stop-color="#3b82f6"/></linearGradient>
</defs>
<rect x="0" y="0" width="3660" height="1900" fill="#f8fbfd"/>
<text x="60" y="70" font-size="30" font-weight="bold" fill="#1e3a5f">欠料（料不良）要因分析图</text>
<text x="60" y="104" font-size="16" fill="#7b8ba1">标准鱼骨图 ｜ 大骨 → 中骨 → 小骨 → 小小骨 ｜ 蓝色高亮 ★ = 重点要因（待真因验证）</text>
<line x1="40" y1="980" x2="3277" y2="980" stroke="#475569" stroke-width="8" stroke-linecap="round"/>
<polygon points="3277,956 3277,1004 3307,980" fill="#475569"/>
<rect x="3309" y="880" width="330" height="200" rx="40" fill="url(#gHead)"/>
<text x="3474" y="984" font-size="52" font-weight="bold" fill="#ffffff" text-anchor="middle">欠　料</text>
<text x="3474" y="1032" font-size="22" fill="#ffffff" opacity="0.95" text-anchor="middle">（ 料 不 良 ）</text>
<line x1="1600" y1="980" x2="1288" y2="439" stroke="#475569" stroke-width="6" stroke-linecap="round"/>
<rect x="1196" y="345" width="184" height="60" rx="22" fill="url(#gB)"/>
<text x="1288" y="386" font-size="30" font-weight="bold" fill="#ffffff" text-anchor="middle">材料</text>
<line x1="809" y1="557" x2="1356" y2="557" stroke="#64748b" stroke-width="3.5"/>
<circle cx="1356" cy="557" r="6" fill="#38bdf8"/>
<rect x="809" y="538" width="54" height="38" rx="16" fill="#e0f2fe" stroke="#0369a1" stroke-opacity="0.35"/>
<text x="836" y="564" font-size="19" font-weight="bold" fill="#0369a1" text-anchor="middle">性能</text>
<line x1="941" y1="557" x2="941" y2="537" stroke="#94a3b8" stroke-width="2"/>
<text x="941" y="529" font-size="16" fill="#334155" text-anchor="middle">流动性差</text>
<line x1="1053" y1="557" x2="1053" y2="537" stroke="#94a3b8" stroke-width="2"/>
<text x="1053" y="529" font-size="16" fill="#334155" text-anchor="middle">制剂添加过多</text>
<line x1="1157" y1="557" x2="1157" y2="537" stroke="#94a3b8" stroke-width="2"/>
<text x="1157" y="529" font-size="16" fill="#334155" text-anchor="middle">未密封</text>
<line x1="1229" y1="557" x2="1229" y2="537" stroke="#94a3b8" stroke-width="2"/>
<text x="1229" y="529" font-size="16" fill="#334155" text-anchor="middle">氧化</text>
<line x1="624" y1="669" x2="1421" y2="669" stroke="#64748b" stroke-width="3.5"/>
<circle cx="1421" cy="669" r="6" fill="#38bdf8"/>
<rect x="624" y="650" width="54" height="38" rx="16" fill="#e0f2fe" stroke="#0369a1" stroke-opacity="0.35"/>
<text x="651" y="676" font-size="19" font-weight="bold" fill="#0369a1" text-anchor="middle">材质</text>
<line x1="740" y1="669" x2="740" y2="649" stroke="#94a3b8" stroke-width="2"/>
<text x="740" y="641" font-size="16" fill="#334155" text-anchor="middle">吸水</text>
<line x1="804" y1="669" x2="804" y2="615" stroke="#94a3b8" stroke-width="2"/>
<text x="804" y="641" font-size="16" fill="#334155" text-anchor="middle">分解</text>
<line x1="804" y1="615" x2="902" y2="615" stroke="#94a3b8" stroke-width="1.6"/>
<text x="816" y="608" font-size="14" fill="#475569" text-anchor="start">长时间外露</text>
<line x1="1030" y1="669" x2="1030" y2="649" stroke="#94a3b8" stroke-width="2"/>
<text x="1030" y="641" font-size="16" fill="#334155" text-anchor="middle">搅拌时间短</text>
<line x1="1142" y1="669" x2="1142" y2="649" stroke="#94a3b8" stroke-width="2"/>
<text x="1142" y="641" font-size="16" fill="#334155" text-anchor="middle">混合机异常</text>
<line x1="1262" y1="669" x2="1262" y2="649" stroke="#94a3b8" stroke-width="2"/>
<text x="1262" y="641" font-size="16" fill="#334155" text-anchor="middle">混合比例异常</text>
<line x1="567" y1="781" x2="1485" y2="781" stroke="#64748b" stroke-width="3.5"/>
<circle cx="1485" cy="781" r="6" fill="#38bdf8"/>
<rect x="567" y="762" width="86" height="38" rx="16" fill="#e0f2fe" stroke="#0369a1" stroke-opacity="0.35"/>
<text x="610" y="788" font-size="19" font-weight="bold" fill="#0369a1" text-anchor="middle">材料干燥</text>
<line x1="747" y1="781" x2="747" y2="727" stroke="#94a3b8" stroke-width="2"/>
<text x="747" y="753" font-size="16" fill="#334155" text-anchor="middle">干燥时间不足</text>
<line x1="747" y1="727" x2="845" y2="727" stroke="#94a3b8" stroke-width="1.6"/>
<text x="759" y="720" font-size="14" fill="#475569" text-anchor="start">定时器异常</text>
<line x1="1005" y1="781" x2="1005" y2="761" stroke="#94a3b8" stroke-width="2"/>
<text x="1005" y="753" font-size="16" fill="#334155" text-anchor="middle">加料不及时</text>
<line x1="1109" y1="781" x2="1109" y2="761" stroke="#94a3b8" stroke-width="2"/>
<text x="1109" y="753" font-size="16" fill="#334155" text-anchor="middle">设备异常</text>
<line x1="1205" y1="781" x2="1205" y2="761" stroke="#94a3b8" stroke-width="2"/>
<text x="1205" y="753" font-size="16" fill="#334155" text-anchor="middle">设定错误</text>
<line x1="1322" y1="781" x2="1322" y2="761" stroke="#94a3b8" stroke-width="2"/>
<rect x="1259" y="734" width="125" height="27" rx="13" fill="url(#gKey)"/>
<text x="1322" y="755" font-size="16" font-weight="bold" fill="#ffffff" text-anchor="middle">★干燥温度偏低</text>
<line x1="656" y1="893" x2="1550" y2="893" stroke="#64748b" stroke-width="3.5"/>
<circle cx="1550" cy="893" r="6" fill="#38bdf8"/>
<rect x="656" y="874" width="70" height="38" rx="16" fill="#e0f2fe" stroke="#0369a1" stroke-opacity="0.35"/>
<text x="691" y="900" font-size="19" font-weight="bold" fill="#0369a1" text-anchor="middle">混合材</text>
<line x1="796" y1="893" x2="796" y2="873" stroke="#94a3b8" stroke-width="2"/>
<text x="796" y="865" font-size="16" fill="#334155" text-anchor="middle">粉尘多</text>
<line x1="881" y1="893" x2="881" y2="873" stroke="#94a3b8" stroke-width="2"/>
<rect x="842" y="846" width="77" height="27" rx="13" fill="url(#gKey)"/>
<text x="881" y="867" font-size="16" font-weight="bold" fill="#ffffff" text-anchor="middle">★未筛选</text>
<line x1="973" y1="893" x2="973" y2="873" stroke="#94a3b8" stroke-width="2"/>
<text x="973" y="865" font-size="16" fill="#334155" text-anchor="middle">混入杂物</text>
<line x1="1069" y1="893" x2="1069" y2="873" stroke="#94a3b8" stroke-width="2"/>
<text x="1069" y="865" font-size="16" fill="#334155" text-anchor="middle">不同材料</text>
<line x1="1178" y1="893" x2="1178" y2="873" stroke="#94a3b8" stroke-width="2"/>
<rect x="1123" y="846" width="109" height="27" rx="13" fill="url(#gKey)"/>
<text x="1178" y="867" font-size="16" font-weight="bold" fill="#ffffff" text-anchor="middle">★粉碎机异常</text>
<line x1="1278" y1="893" x2="1278" y2="873" stroke="#94a3b8" stroke-width="2"/>
<text x="1278" y="865" font-size="16" fill="#334155" text-anchor="middle">水口料</text>
<line x1="1387" y1="893" x2="1387" y2="873" stroke="#94a3b8" stroke-width="2"/>
<rect x="1324" y="846" width="125" height="27" rx="13" fill="url(#gKey)"/>
<text x="1387" y="867" font-size="16" font-weight="bold" fill="#ffffff" text-anchor="middle">★刀片筛网磨损</text>
<line x1="2950" y1="980" x2="2587" y2="352" stroke="#475569" stroke-width="6" stroke-linecap="round"/>
<rect x="2495" y="258" width="184" height="60" rx="22" fill="url(#gT)"/>
<text x="2587" y="299" font-size="30" font-weight="bold" fill="#ffffff" text-anchor="middle">设备</text>
<line x1="1854" y1="475" x2="2659" y2="475" stroke="#64748b" stroke-width="3.5"/>
<circle cx="2659" cy="475" r="6" fill="#38bdf8"/>
<rect x="1854" y="456" width="70" height="38" rx="16" fill="#ccfbf1" stroke="#0f766e" stroke-opacity="0.35"/>
<text x="1889" y="482" font-size="19" font-weight="bold" fill="#0f766e" text-anchor="middle">成形机</text>
<line x1="2006" y1="475" x2="2006" y2="455" stroke="#94a3b8" stroke-width="2"/>
<rect x="1960" y="428" width="93" height="27" rx="13" fill="url(#gKey)"/>
<text x="2006" y="449" font-size="16" font-weight="bold" fill="#ffffff" text-anchor="middle">★螺杆磨损</text>
<line x1="2099" y1="475" x2="2099" y2="455" stroke="#94a3b8" stroke-width="2"/>
<text x="2099" y="447" font-size="16" fill="#334155" text-anchor="middle">材质差</text>
<line x1="2195" y1="475" x2="2195" y2="455" stroke="#94a3b8" stroke-width="2"/>
<text x="2195" y="447" font-size="16" fill="#334155" text-anchor="middle">时间长磨损</text>
<line x1="2323" y1="475" x2="2323" y2="455" stroke="#94a3b8" stroke-width="2"/>
<text x="2323" y="447" font-size="16" fill="#334155" text-anchor="middle">使用大吨位机器</text>
<line x1="2443" y1="475" x2="2443" y2="455" stroke="#94a3b8" stroke-width="2"/>
<text x="2443" y="447" font-size="16" fill="#334155" text-anchor="middle">合模力大</text>
<line x1="2527" y1="475" x2="2527" y2="455" stroke="#94a3b8" stroke-width="2"/>
<rect x="2497" y="428" width="61" height="27" rx="13" fill="url(#gKey)"/>
<text x="2527" y="449" font-size="16" font-weight="bold" fill="#ffffff" text-anchor="middle">★料筒</text>
<line x1="1840" y1="587" x2="2723" y2="587" stroke="#64748b" stroke-width="3.5"/>
<circle cx="2723" cy="587" r="6" fill="#38bdf8"/>
<rect x="1840" y="568" width="70" height="38" rx="16" fill="#ccfbf1" stroke="#0f766e" stroke-opacity="0.35"/>
<text x="1875" y="594" font-size="19" font-weight="bold" fill="#0f766e" text-anchor="middle">模温机</text>
<line x1="1996" y1="587" x2="1996" y2="567" stroke="#94a3b8" stroke-width="2"/>
<text x="1996" y="559" font-size="16" fill="#334155" text-anchor="middle">循环水不足</text>
<line x1="2100" y1="587" x2="2100" y2="567" stroke="#94a3b8" stroke-width="2"/>
<text x="2100" y="559" font-size="16" fill="#334155" text-anchor="middle">温度异常</text>
<line x1="2196" y1="587" x2="2196" y2="567" stroke="#94a3b8" stroke-width="2"/>
<text x="2196" y="559" font-size="16" fill="#334155" text-anchor="middle">发热异常</text>
<line x1="2292" y1="587" x2="2292" y2="567" stroke="#94a3b8" stroke-width="2"/>
<text x="2292" y="559" font-size="16" fill="#334155" text-anchor="middle">压力不足</text>
<line x1="2372" y1="587" x2="2372" y2="567" stroke="#94a3b8" stroke-width="2"/>
<text x="2372" y="559" font-size="16" fill="#334155" text-anchor="middle">机水</text>
<line x1="2452" y1="587" x2="2452" y2="567" stroke="#94a3b8" stroke-width="2"/>
<text x="2452" y="559" font-size="16" fill="#334155" text-anchor="middle">开关未开</text>
<line x1="2564" y1="587" x2="2564" y2="567" stroke="#94a3b8" stroke-width="2"/>
<text x="2564" y="559" font-size="16" fill="#334155" text-anchor="middle">冷却系统异常</text>
<line x1="1679" y1="767" x2="2827" y2="767" stroke="#64748b" stroke-width="3.5"/>
<circle cx="2827" cy="767" r="6" fill="#38bdf8"/>
<rect x="1679" y="748" width="54" height="38" rx="16" fill="#ccfbf1" stroke="#0f766e" stroke-opacity="0.35"/>
<text x="1706" y="774" font-size="19" font-weight="bold" fill="#0f766e" text-anchor="middle">金型</text>
<line x1="1811" y1="767" x2="1811" y2="747" stroke="#94a3b8" stroke-width="2"/>
<text x="1811" y="739" font-size="16" fill="#334155" text-anchor="middle">设计不适</text>
<line x1="1907" y1="767" x2="1907" y2="747" stroke="#94a3b8" stroke-width="2"/>
<text x="1907" y="739" font-size="16" fill="#334155" text-anchor="middle">进胶口小</text>
<line x1="2003" y1="767" x2="2003" y2="747" stroke="#94a3b8" stroke-width="2"/>
<text x="2003" y="739" font-size="16" fill="#334155" text-anchor="middle">取数过多</text>
<line x1="2107" y1="767" x2="2107" y2="747" stroke="#94a3b8" stroke-width="2"/>
<text x="2107" y="739" font-size="16" fill="#334155" text-anchor="middle">逸胶不平衡</text>
<line x1="2227" y1="767" x2="2227" y2="747" stroke="#94a3b8" stroke-width="2"/>
<text x="2227" y="739" font-size="16" fill="#334155" text-anchor="middle">制品肉厚太薄</text>
<line x1="2339" y1="767" x2="2339" y2="747" stroke="#94a3b8" stroke-width="2"/>
<text x="2339" y="739" font-size="16" fill="#334155" text-anchor="middle">配件不良</text>
<line x1="2435" y1="767" x2="2435" y2="747" stroke="#94a3b8" stroke-width="2"/>
<text x="2435" y="739" font-size="16" fill="#334155" text-anchor="middle">尺寸不良</text>
<line x1="2515" y1="767" x2="2515" y2="747" stroke="#94a3b8" stroke-width="2"/>
<text x="2515" y="739" font-size="16" fill="#334155" text-anchor="middle">破损</text>
<line x1="2579" y1="767" x2="2579" y2="747" stroke="#94a3b8" stroke-width="2"/>
<text x="2579" y="739" font-size="16" fill="#334155" text-anchor="middle">堵塞</text>
<line x1="2672" y1="767" x2="2672" y2="747" stroke="#94a3b8" stroke-width="2"/>
<rect x="2617" y="720" width="109" height="27" rx="13" fill="url(#gKey)"/>
<text x="2672" y="741" font-size="16" font-weight="bold" fill="#ffffff" text-anchor="middle">★清扫不及时</text>
<line x1="1819" y1="767" x2="1819" y2="713" stroke="#94a3b8" stroke-width="2"/>
<text x="1819" y="705" font-size="16" fill="#334155" text-anchor="middle">槽深度不够</text>
<line x1="1923" y1="767" x2="1923" y2="713" stroke="#94a3b8" stroke-width="2"/>
<text x="1923" y="705" font-size="16" fill="#334155" text-anchor="middle">位子不当</text>
<line x1="2011" y1="767" x2="2011" y2="713" stroke="#94a3b8" stroke-width="2"/>
<text x="2011" y="705" font-size="16" fill="#334155" text-anchor="middle">温度低</text>
<line x1="2107" y1="767" x2="2107" y2="713" stroke="#94a3b8" stroke-width="2"/>
<text x="2107" y="705" font-size="16" fill="#334155" text-anchor="middle">炭化物堵塞</text>
<line x1="2224" y1="767" x2="2224" y2="713" stroke="#94a3b8" stroke-width="2"/>
<rect x="2169" y="686" width="109" height="27" rx="13" fill="url(#gKey)"/>
<text x="2224" y="707" font-size="16" font-weight="bold" fill="#ffffff" text-anchor="middle">★排气槽不良</text>
<line x1="2324" y1="767" x2="2324" y2="652" stroke="#94a3b8" stroke-width="2"/>
<text x="2324" y="705" font-size="16" fill="#334155" text-anchor="middle">干燥剂</text>
<line x1="2324" y1="679" x2="2406" y2="679" stroke="#94a3b8" stroke-width="1.6"/>
<text x="2336" y="672" font-size="14" fill="#475569" text-anchor="start">过期失效</text>
<line x1="2324" y1="652" x2="2406" y2="652" stroke="#94a3b8" stroke-width="1.6"/>
<text x="2336" y="645" font-size="14" fill="#475569" text-anchor="start">设定错误</text>
<line x1="2534" y1="767" x2="2534" y2="713" stroke="#94a3b8" stroke-width="2"/>
<text x="2534" y="705" font-size="16" fill="#334155" text-anchor="middle">温度异常</text>
<line x1="2630" y1="767" x2="2630" y2="713" stroke="#94a3b8" stroke-width="2"/>
<text x="2630" y="705" font-size="16" fill="#334155" text-anchor="middle">温控失效</text>
<line x1="1843" y1="767" x2="1843" y2="679" stroke="#94a3b8" stroke-width="2"/>
<text x="1843" y="671" font-size="16" fill="#334155" text-anchor="middle">过滤网未定期清扫</text>
<line x1="1979" y1="767" x2="1979" y2="679" stroke="#94a3b8" stroke-width="2"/>
<text x="1979" y="671" font-size="16" fill="#334155" text-anchor="middle">过滤网堵塞</text>
<line x1="2059" y1="767" x2="2059" y2="679" stroke="#94a3b8" stroke-width="2"/>
<text x="2059" y="671" font-size="16" fill="#334155" text-anchor="middle">坏</text>
<line x1="2123" y1="767" x2="2123" y2="645" stroke="#94a3b8" stroke-width="2"/>
<text x="2123" y="671" font-size="16" fill="#334155" text-anchor="middle">发热器</text>
<line x1="2123" y1="645" x2="2237" y2="645" stroke="#94a3b8" stroke-width="1.6"/>
<text x="2135" y="638" font-size="14" fill="#475569" text-anchor="start">不能正常发热</text>
<line x1="2313" y1="879" x2="2892" y2="879" stroke="#64748b" stroke-width="3.5"/>
<circle cx="2892" cy="879" r="6" fill="#38bdf8"/>
<rect x="2313" y="860" width="70" height="38" rx="16" fill="#ccfbf1" stroke="#0f766e" stroke-opacity="0.35"/>
<text x="2348" y="886" font-size="19" font-weight="bold" fill="#0f766e" text-anchor="middle">干燥机</text>
<line x1="2469" y1="879" x2="2469" y2="859" stroke="#94a3b8" stroke-width="2"/>
<text x="2469" y="851" font-size="16" fill="#334155" text-anchor="middle">热流道不顺</text>
<line x1="2573" y1="879" x2="2573" y2="859" stroke="#94a3b8" stroke-width="2"/>
<text x="2573" y="851" font-size="16" fill="#334155" text-anchor="middle">温度异常</text>
<line x1="2669" y1="879" x2="2669" y2="859" stroke="#94a3b8" stroke-width="2"/>
<text x="2669" y="851" font-size="16" fill="#334155" text-anchor="middle">温控失效</text>
<line x1="2757" y1="879" x2="2757" y2="859" stroke="#94a3b8" stroke-width="2"/>
<text x="2757" y="851" font-size="16" fill="#334155" text-anchor="middle">发热器</text>
<line x1="1600" y1="980" x2="1288" y2="1521" stroke="#475569" stroke-width="6" stroke-linecap="round"/>
<rect x="1196" y="1555" width="184" height="60" rx="22" fill="url(#gI)"/>
<text x="1288" y="1596" font-size="30" font-weight="bold" fill="#ffffff" text-anchor="middle">人</text>
<line x1="665" y1="1403" x2="1356" y2="1403" stroke="#64748b" stroke-width="3.5"/>
<circle cx="1356" cy="1403" r="6" fill="#38bdf8"/>
<rect x="665" y="1384" width="70" height="38" rx="16" fill="#e0e7ff" stroke="#4338ca" stroke-opacity="0.35"/>
<text x="700" y="1410" font-size="19" font-weight="bold" fill="#4338ca" text-anchor="middle">作业者</text>
<line x1="829" y1="1403" x2="829" y2="1423" stroke="#94a3b8" stroke-width="2"/>
<text x="829" y="1443" font-size="16" fill="#334155" text-anchor="middle">作业手法错误</text>
<line x1="941" y1="1403" x2="941" y2="1423" stroke="#94a3b8" stroke-width="2"/>
<text x="941" y="1443" font-size="16" fill="#334155" text-anchor="middle">工作马虎</text>
<line x1="1061" y1="1403" x2="1061" y2="1423" stroke="#94a3b8" stroke-width="2"/>
<text x="1061" y="1443" font-size="16" fill="#334155" text-anchor="middle">不良位置不明确</text>
<line x1="1197" y1="1403" x2="1197" y2="1423" stroke="#94a3b8" stroke-width="2"/>
<text x="1197" y="1443" font-size="16" fill="#334155" text-anchor="middle">品质观念不强</text>
<line x1="982" y1="1291" x2="1421" y2="1291" stroke="#64748b" stroke-width="3.5"/>
<circle cx="1421" cy="1291" r="6" fill="#38bdf8"/>
<rect x="982" y="1272" width="49" height="38" rx="16" fill="#e0e7ff" stroke="#4338ca" stroke-opacity="0.35"/>
<text x="1006" y="1298" font-size="19" font-weight="bold" fill="#4338ca" text-anchor="middle">PQC</text>
<line x1="1129" y1="1291" x2="1129" y2="1311" stroke="#94a3b8" stroke-width="2"/>
<rect x="1067" y="1311" width="125" height="27" rx="13" fill="url(#gKey)"/>
<text x="1129" y="1332" font-size="16" font-weight="bold" fill="#ffffff" text-anchor="middle">★抽段数量不够</text>
<line x1="1262" y1="1291" x2="1262" y2="1311" stroke="#94a3b8" stroke-width="2"/>
<text x="1262" y="1331" font-size="16" fill="#334155" text-anchor="middle">未按标准作业</text>
<line x1="584" y1="1179" x2="1485" y2="1179" stroke="#64748b" stroke-width="3.5"/>
<circle cx="1485" cy="1179" r="6" fill="#38bdf8"/>
<rect x="584" y="1160" width="102" height="38" rx="16" fill="#e0e7ff" stroke="#4338ca" stroke-opacity="0.35"/>
<text x="635" y="1186" font-size="19" font-weight="bold" fill="#4338ca" text-anchor="middle">成型技术员</text>
<line x1="764" y1="1179" x2="764" y2="1199" stroke="#94a3b8" stroke-width="2"/>
<text x="764" y="1219" font-size="16" fill="#334155" text-anchor="middle">技术缺乏</text>
<line x1="860" y1="1179" x2="860" y2="1199" stroke="#94a3b8" stroke-width="2"/>
<text x="860" y="1219" font-size="16" fill="#334155" text-anchor="middle">操作失误</text>
<line x1="964" y1="1179" x2="964" y2="1199" stroke="#94a3b8" stroke-width="2"/>
<text x="964" y="1219" font-size="16" fill="#334155" text-anchor="middle">未打开升水</text>
<line x1="1129" y1="1179" x2="1129" y2="1199" stroke="#94a3b8" stroke-width="2"/>
<rect x="1026" y="1199" width="205" height="27" rx="13" fill="url(#gKey)"/>
<text x="1129" y="1220" font-size="16" font-weight="bold" fill="#ffffff" text-anchor="middle">★未对量产前部品进行确认</text>
<line x1="1314" y1="1179" x2="1314" y2="1199" stroke="#94a3b8" stroke-width="2"/>
<rect x="1243" y="1199" width="141" height="27" rx="13" fill="url(#gKey)"/>
<text x="1314" y="1220" font-size="16" font-weight="bold" fill="#ffffff" text-anchor="middle">★未废弃开不良品</text>
<line x1="1131" y1="1067" x2="1550" y2="1067" stroke="#64748b" stroke-width="3.5"/>
<circle cx="1550" cy="1067" r="6" fill="#38bdf8"/>
<rect x="1131" y="1048" width="102" height="38" rx="16" fill="#e0e7ff" stroke="#4338ca" stroke-opacity="0.35"/>
<text x="1182" y="1074" font-size="19" font-weight="bold" fill="#4338ca" text-anchor="middle">修模技术员</text>
<line x1="1311" y1="1067" x2="1311" y2="1087" stroke="#94a3b8" stroke-width="2"/>
<text x="1311" y="1107" font-size="16" fill="#334155" text-anchor="middle">配件装错</text>
<line x1="1407" y1="1067" x2="1407" y2="1087" stroke="#94a3b8" stroke-width="2"/>
<text x="1407" y="1107" font-size="16" fill="#334155" text-anchor="middle">经验不足</text>
<line x1="2950" y1="980" x2="2527" y2="1712" stroke="#475569" stroke-width="6" stroke-linecap="round"/>
<rect x="2435" y="1746" width="184" height="60" rx="22" fill="url(#gS)"/>
<text x="2527" y="1787" font-size="30" font-weight="bold" fill="#ffffff" text-anchor="middle">方法</text>
<line x1="1426" y1="1548" x2="2622" y2="1548" stroke="#64748b" stroke-width="3.5"/>
<circle cx="2622" cy="1548" r="6" fill="#38bdf8"/>
<rect x="1426" y="1529" width="86" height="38" rx="16" fill="#e2e8f0" stroke="#334155" stroke-opacity="0.35"/>
<text x="1469" y="1555" font-size="19" font-weight="bold" fill="#334155" text-anchor="middle">金型维护</text>
<line x1="1606" y1="1548" x2="1606" y2="1568" stroke="#94a3b8" stroke-width="2"/>
<text x="1606" y="1588" font-size="16" fill="#334155" text-anchor="middle">未按计划进行</text>
<line x1="1718" y1="1548" x2="1718" y2="1568" stroke="#94a3b8" stroke-width="2"/>
<text x="1718" y="1588" font-size="16" fill="#334155" text-anchor="middle">定期保养</text>
<line x1="1827" y1="1548" x2="1827" y2="1568" stroke="#94a3b8" stroke-width="2"/>
<rect x="1772" y="1568" width="109" height="27" rx="13" fill="url(#gKey)"/>
<text x="1827" y="1589" font-size="16" font-weight="bold" fill="#ffffff" text-anchor="middle">★未按时进行</text>
<line x1="1935" y1="1548" x2="1935" y2="1568" stroke="#94a3b8" stroke-width="2"/>
<text x="1935" y="1588" font-size="16" fill="#334155" text-anchor="middle">方法错误</text>
<line x1="2071" y1="1548" x2="2071" y2="1568" stroke="#94a3b8" stroke-width="2"/>
<text x="2071" y="1588" font-size="16" fill="#334155" text-anchor="middle">项目不全方法不正确</text>
<line x1="2207" y1="1548" x2="2207" y2="1568" stroke="#94a3b8" stroke-width="2"/>
<text x="2207" y="1588" font-size="16" fill="#334155" text-anchor="middle">日常保养</text>
<line x1="2311" y1="1548" x2="2311" y2="1568" stroke="#94a3b8" stroke-width="2"/>
<text x="2311" y="1588" font-size="16" fill="#334155" text-anchor="middle">保养位不全</text>
<line x1="2415" y1="1548" x2="2415" y2="1568" stroke="#94a3b8" stroke-width="2"/>
<text x="2415" y="1588" font-size="16" fill="#334155" text-anchor="middle">配件装错</text>
<line x1="2495" y1="1548" x2="2495" y2="1568" stroke="#94a3b8" stroke-width="2"/>
<text x="2495" y="1588" font-size="16" fill="#334155" text-anchor="middle">修理</text>
<line x1="1608" y1="1548" x2="1608" y2="1602" stroke="#94a3b8" stroke-width="2"/>
<rect x="1548" y="1602" width="120" height="27" rx="13" fill="url(#gKey)"/>
<text x="1608" y="1623" font-size="16" font-weight="bold" fill="#ffffff" text-anchor="middle">★未按WGS作业</text>
<line x1="1517" y1="1402" x2="2706" y2="1402" stroke="#64748b" stroke-width="3.5"/>
<circle cx="2706" cy="1402" r="6" fill="#38bdf8"/>
<rect x="1517" y="1383" width="54" height="38" rx="16" fill="#e2e8f0" stroke="#334155" stroke-opacity="0.35"/>
<text x="1544" y="1409" font-size="19" font-weight="bold" fill="#334155" text-anchor="middle">操作</text>
<line x1="1705" y1="1402" x2="1705" y2="1422" stroke="#94a3b8" stroke-width="2"/>
<text x="1705" y="1442" font-size="16" fill="#334155" text-anchor="middle">开机生产部品未确认品质</text>
<line x1="1894" y1="1402" x2="1894" y2="1422" stroke="#94a3b8" stroke-width="2"/>
<rect x="1815" y="1422" width="157" height="27" rx="13" fill="url(#gKey)"/>
<text x="1894" y="1443" font-size="16" font-weight="bold" fill="#ffffff" text-anchor="middle">★未按规定废弃数量</text>
<line x1="2034" y1="1402" x2="2034" y2="1422" stroke="#94a3b8" stroke-width="2"/>
<text x="2034" y="1442" font-size="16" fill="#334155" text-anchor="middle">未定期清洗</text>
<line x1="2178" y1="1402" x2="2178" y2="1422" stroke="#94a3b8" stroke-width="2"/>
<text x="2178" y="1442" font-size="16" fill="#334155" text-anchor="middle">料筒热流道清洗干净</text>
<line x1="2322" y1="1402" x2="2322" y2="1422" stroke="#94a3b8" stroke-width="2"/>
<text x="2322" y="1442" font-size="16" fill="#334155" text-anchor="middle">未清洗干净</text>
<line x1="2455" y1="1402" x2="2455" y2="1422" stroke="#94a3b8" stroke-width="2"/>
<rect x="2384" y="1422" width="141" height="27" rx="13" fill="url(#gKey)"/>
<text x="2455" y="1443" font-size="16" font-weight="bold" fill="#ffffff" text-anchor="middle">★未废弃异常部品</text>
<line x1="2571" y1="1402" x2="2571" y2="1422" stroke="#94a3b8" stroke-width="2"/>
<text x="2571" y="1442" font-size="16" fill="#334155" text-anchor="middle">未确认</text>
<line x1="1657" y1="1402" x2="1657" y2="1456" stroke="#94a3b8" stroke-width="2"/>
<text x="1657" y="1476" font-size="16" fill="#334155" text-anchor="middle">未按下料槽</text>
<line x1="1761" y1="1402" x2="1761" y2="1456" stroke="#94a3b8" stroke-width="2"/>
<text x="1761" y="1476" font-size="16" fill="#334155" text-anchor="middle">异常处理</text>
<line x1="2016" y1="1290" x2="2771" y2="1290" stroke="#64748b" stroke-width="3.5"/>
<circle cx="2771" cy="1290" r="6" fill="#38bdf8"/>
<rect x="2016" y="1271" width="54" height="38" rx="16" fill="#e2e8f0" stroke="#334155" stroke-opacity="0.35"/>
<text x="2043" y="1297" font-size="19" font-weight="bold" fill="#334155" text-anchor="middle">检查</text>
<line x1="2148" y1="1290" x2="2148" y2="1310" stroke="#94a3b8" stroke-width="2"/>
<text x="2148" y="1330" font-size="16" fill="#334155" text-anchor="middle">出货检查</text>
<line x1="2236" y1="1290" x2="2236" y2="1310" stroke="#94a3b8" stroke-width="2"/>
<text x="2236" y="1330" font-size="16" fill="#334155" text-anchor="middle">未检查</text>
<line x1="2340" y1="1290" x2="2340" y2="1310" stroke="#94a3b8" stroke-width="2"/>
<text x="2340" y="1330" font-size="16" fill="#334155" text-anchor="middle">抽取数量不够</text>
<line x1="2460" y1="1290" x2="2460" y2="1310" stroke="#94a3b8" stroke-width="2"/>
<text x="2460" y="1330" font-size="16" fill="#334155" text-anchor="middle">未全数检查</text>
<line x1="2548" y1="1290" x2="2548" y2="1310" stroke="#94a3b8" stroke-width="2"/>
<text x="2548" y="1330" font-size="16" fill="#334155" text-anchor="middle">漏检</text>
<line x1="2628" y1="1290" x2="2628" y2="1310" stroke="#94a3b8" stroke-width="2"/>
<text x="2628" y="1330" font-size="16" fill="#334155" text-anchor="middle">外观全检</text>
<line x1="1796" y1="1097" x2="2882" y2="1097" stroke="#64748b" stroke-width="3.5"/>
<circle cx="2882" cy="1097" r="6" fill="#38bdf8"/>
<rect x="1796" y="1078" width="86" height="38" rx="16" fill="#e2e8f0" stroke="#334155" stroke-opacity="0.35"/>
<text x="1839" y="1104" font-size="19" font-weight="bold" fill="#334155" text-anchor="middle">成形条件</text>
<line x1="1948" y1="1097" x2="1948" y2="1205" stroke="#94a3b8" stroke-width="2"/>
<rect x="1918" y="1117" width="61" height="27" rx="13" fill="url(#gKey)"/>
<text x="1948" y="1138" font-size="16" font-weight="bold" fill="#ffffff" text-anchor="middle">★温度</text>
<line x1="1948" y1="1151" x2="2046" y2="1151" stroke="#94a3b8" stroke-width="1.6"/>
<text x="1960" y="1168" font-size="14" fill="#475569" text-anchor="start">溶胶温度低</text>
<line x1="1948" y1="1178" x2="2062" y2="1178" stroke="#94a3b8" stroke-width="1.6"/>
<text x="1960" y="1195" font-size="14" fill="#475569" text-anchor="start">热胶道温度低</text>
<line x1="1948" y1="1205" x2="2046" y2="1205" stroke="#94a3b8" stroke-width="1.6"/>
<text x="1960" y="1222" font-size="14" fill="#475569" text-anchor="start">金型温度低</text>
<line x1="2175" y1="1097" x2="2175" y2="1178" stroke="#94a3b8" stroke-width="2"/>
<rect x="2144" y="1117" width="61" height="27" rx="13" fill="url(#gKey)"/>
<text x="2175" y="1138" font-size="16" font-weight="bold" fill="#ffffff" text-anchor="middle">★速度</text>
<line x1="2175" y1="1151" x2="2273" y2="1151" stroke="#94a3b8" stroke-width="1.6"/>
<text x="2187" y="1168" font-size="14" fill="#475569" text-anchor="start">计量速度慢</text>
<line x1="2175" y1="1178" x2="2273" y2="1178" stroke="#94a3b8" stroke-width="1.6"/>
<text x="2187" y="1195" font-size="14" fill="#475569" text-anchor="start">射出速度慢</text>
<line x1="2386" y1="1097" x2="2386" y2="1178" stroke="#94a3b8" stroke-width="2"/>
<rect x="2355" y="1117" width="61" height="27" rx="13" fill="url(#gKey)"/>
<text x="2386" y="1138" font-size="16" font-weight="bold" fill="#ffffff" text-anchor="middle">★时间</text>
<line x1="2386" y1="1151" x2="2484" y2="1151" stroke="#94a3b8" stroke-width="1.6"/>
<text x="2398" y="1168" font-size="14" fill="#475569" text-anchor="start">射出时间短</text>
<line x1="2386" y1="1178" x2="2500" y2="1178" stroke="#94a3b8" stroke-width="1.6"/>
<text x="2398" y="1195" font-size="14" fill="#475569" text-anchor="start">保压时间不够</text>
<line x1="2613" y1="1097" x2="2613" y2="1232" stroke="#94a3b8" stroke-width="2"/>
<rect x="2582" y="1117" width="61" height="27" rx="13" fill="url(#gKey)"/>
<text x="2613" y="1138" font-size="16" font-weight="bold" fill="#ffffff" text-anchor="middle">★压力</text>
<line x1="2613" y1="1151" x2="2695" y2="1151" stroke="#94a3b8" stroke-width="1.6"/>
<text x="2625" y="1168" font-size="14" fill="#475569" text-anchor="start">背压力小</text>
<line x1="2613" y1="1178" x2="2711" y2="1178" stroke="#94a3b8" stroke-width="1.6"/>
<text x="2625" y="1195" font-size="14" fill="#475569" text-anchor="start">射出压力小</text>
<line x1="2613" y1="1205" x2="2711" y2="1205" stroke="#94a3b8" stroke-width="1.6"/>
<text x="2625" y="1222" font-size="14" fill="#475569" text-anchor="start">合模压力大</text>
<line x1="2613" y1="1232" x2="2695" y2="1232" stroke="#94a3b8" stroke-width="1.6"/>
<text x="2625" y="1249" font-size="14" fill="#475569" text-anchor="start">保压力小</text>
<line x1="1948" y1="1097" x2="1948" y2="1212" stroke="#94a3b8" stroke-width="2"/>
<rect x="1918" y="1151" width="61" height="27" rx="13" fill="url(#gKey)"/>
<text x="1948" y="1172" font-size="16" font-weight="bold" fill="#ffffff" text-anchor="middle">★位置</text>
<line x1="1948" y1="1185" x2="2046" y2="1185" stroke="#94a3b8" stroke-width="1.6"/>
<text x="1960" y="1202" font-size="14" fill="#475569" text-anchor="start">计量位置小</text>
<line x1="1948" y1="1212" x2="2078" y2="1212" stroke="#94a3b8" stroke-width="1.6"/>
<text x="1960" y="1229" font-size="14" fill="#475569" text-anchor="start">保压切换位置大</text>
<rect x="60" y="1839" width="34" height="27" rx="13" fill="url(#gKey)"/><text x="77" y="1860" font-size="15" font-weight="bold" fill="#ffffff" text-anchor="middle">★</text>
<text x="106" y="1860" font-size="16" fill="#46586e">重点要因（待真因验证）</text>
<text x="430" y="1860" font-size="16" fill="#7b8ba1">绘制法：鱼头 → 脊骨 → 大骨(60°) → 中骨(水平) → 小骨(短刺) → 小小骨(嵌套)</text>
<text x="3080" y="1860" font-size="16" fill="#7b8ba1">4 大骨 · 16 中骨 · 103 小骨 · ★20 重点要因</text>
</svg>